# xmcd
#
# Track frame offsets: 
#        150
#        15840
#        36896
#        50674
#        75703
#        89758
#        108997
#        132318
#        145786
#        169225
#        180154
#        203814
#        223025
#        240575
#        254261
#        272711
#        296732
#
# Disc length: 4233 seconds
#
# Revision: 2
# Processed by: cddbd v1.5.2PL0 Copyright (c) Steve Scherf et al.
# Submitted via: ExactAudioCopy v1.3
#
DISCID=f2108711
DTITLE=Zdrowa Woda - Balanga
DYEAR=2005
DGENRE=Blues
TTITLE0=Garniesz Sie Do Mnie
TTITLE1=Piwo
TTITLE2=Ja I Ty
TTITLE3=Zapodzialem Spokoj Swoj
TTITLE4=Wino
TTITLE5=Trele Morele
TTITLE6=Nie Boj Sie Milosci
TTITLE7=Bractwo
TTITLE8=Balanga
TTITLE9=Zart
TTITLE10=Przy Czwartym Stole
TTITLE11=Kochaj Mnie Kochaj
TTITLE12=Dziwne Mysli
TTITLE13=W Tym Barze
TTITLE14=Twoj Szept
TTITLE15=Radziejow Song
TTITLE16=Szklana Milosc
EXTD=
EXTT0=
EXTT1=
EXTT2=
EXTT3=
EXTT4=
EXTT5=
EXTT6=
EXTT7=
EXTT8=
EXTT9=
EXTT10=
EXTT11=
EXTT12=
EXTT13=
EXTT14=
EXTT15=
EXTT16=
PLAYORDER=
